# xmcd
#
# Track frame offsets: 
#        187
#        34777
#        49120
#        69745
#        81300
#        104050
#        114925
#
# Disc length: 2028 seconds
#
# Revision: 3
# Processed by: cddbd v1.5.2PL0 Copyright (c) Steve Scherf et al.
# Submitted via: ExactAudioCopy v1.0b3
#
DISCID=5d07ea07
DTITLE=Tamba Trio - We And The Sea -Tamba 4
DYEAR=1967
DGENRE=Brasil-Jazz
TTITLE0=O Morro
TTITLE1=Moça Flor
TTITLE2=Iemanjá
TTITLE3=Nós E O Mar
TTITLE4=Canto De Ossanha
TTITLE5=Dolphin
TTITLE6=Consolação
EXTD=YEAR: 1968
EXTT0=
EXTT1=
EXTT2=
EXTT3=
EXTT4=
EXTT5=
EXTT6=
PLAYORDER=
